ply
format ascii 1.0
comment Exported by Aspose.3D 22.7
element vertex 24
property float x
property float y
property float z
property float nx
property float ny
property float nz
property float u
property float v
element face 12
property list uchar int vertex_index
end_header
1 0.1 -1 0 1 0 0 0
-1 0.1 -1 0 1 0 1 0
1 0.1 1 0 1 0 0 1
-1 0.1 1 0 1 0 1 1
1 -0.1 1 0 -1 0 0 0
-1 -0.1 1 0 -1 0 1 0
1 -0.1 -1 0 -1 0 0 1
-1 -0.1 -1 0 -1 0 1 1
-1 -0.1 -1 0 0 -1 0 0
-1 0.1 -1 0 0 -1 1 0
1 -0.1 -1 0 0 -1 0 1
1 0.1 -1 0 0 -1 1 1
1 -0.1 1 0 0 1 0 0
1 0.1 1 0 0 1 1 0
-1 -0.1 1 0 0 1 0 1
-1 0.1 1 0 0 1 1 1
-1 -0.1 1 -1 0 0 0 0
-1 0.1 1 -1 0 0 1 0
-1 -0.1 -1 -1 0 0 0 1
-1 0.1 -1 -1 0 0 1 1
1 -0.1 -1 1 0 0 0 0
1 0.1 -1 1 0 0 1 0
1 -0.1 1 1 0 0 0 1
1 0.1 1 1 0 0 1 1
3 1 2 0
3 1 3 2
3 5 6 4
3 5 7 6
3 9 10 8
3 9 11 10
3 13 14 12
3 13 15 14
3 17 18 16
3 17 19 18
3 21 22 20
3 21 23 22
